<svg width="null" height="null" xmlns="http://www.w3.org/2000/svg" style="animation-delay: 0s; animation-direction: normal; animation-duration: 0s; animation-fill-mode: none; animation-iteration-count: 1; animation-name: none; animation-play-state: running; animation-timing-function: ease; background-attachment: scroll; background-blend-mode: normal; background-clip: border-box; background-color: rgba(120, 129, 136, 0.1); background-image: none; background-origin: padding-box; background-position: 0% 0%; background-repeat: repeat; background-size: auto; border-bottom-color: rgba(120, 129, 136, 0.2); border-bottom-left-radius: 0px; border-bottom-right-radius: 0px; border-bottom-style: solid; border-bottom-width: 1px; border-collapse: separate; border-image-outset: 0px; border-image-repeat: stretch; border-image-slice: 100%; border-image-source: none; border-image-width: 1; border-left-color: rgba(120, 129, 136, 0.2); border-left-style: solid; border-left-width: 1px; border-right-color: rgba(120, 129, 136, 0.2); border-right-style: solid; border-right-width: 1px; border-top-color: rgba(120, 129, 136, 0.2); border-top-left-radius: 0px; border-top-right-radius: 0px; border-top-style: solid; border-top-width: 1px; bottom: auto; box-shadow: none; box-sizing: border-box; break-after: auto; break-before: auto; break-inside: auto; caption-side: top; clear: none; clip: auto; color: rgb(61, 66, 70); content: ; cursor: auto; direction: ltr; display: block; empty-cells: show; float: none; font-family: &quot;Work Sans&quot;, HelveticaNeue, &quot;Helvetica Neue&quot;, sans-serif; font-kerning: auto; font-size: 16px; font-stretch: normal; font-style: normal; font-variant: normal; font-variant-ligatures: normal; font-variant-caps: normal; font-variant-numeric: normal; font-weight: normal; height: 343.328px; image-rendering: auto; isolation: auto; justify-items: normal; justify-self: normal; left: auto; letter-spacing: normal; line-height: 24px; list-style-image: none; list-style-position: outside; list-style-type: none; margin-bottom: 0px; margin-left: 0px; margin-right: 0px; margin-top: 0px; max-height: 100%; max-width: 100%; min-height: 0px; min-width: 0px; mix-blend-mode: normal; object-fit: fill; object-position: 50% 50%; offset-distance: 0px; offset-path: none; offset-rotate: auto 0deg; offset-rotation: auto 0deg; opacity: 1; orphans: 2; outline-color: rgb(61, 66, 70); outline-offset: 0px; outline-style: none; outline-width: 0px; overflow-anchor: auto; overflow-wrap: normal; overflow-x: hidden; overflow-y: hidden; padding-bottom: 0px; padding-left: 0px; padding-right: 0px; padding-top: 0px; pointer-events: auto; position: static; resize: none; right: auto; speak: normal; table-layout: auto; tab-size: 8; text-align: start; text-align-last: auto; text-decoration: none solid rgb(61, 66, 70); text-decoration-line: none; text-decoration-style: solid; text-decoration-color: rgb(61, 66, 70); text-decoration-skip: objects; text-underline-position: auto; text-indent: 0px; text-rendering: auto; text-shadow: none; text-size-adjust: 100%; text-overflow: clip; text-transform: none; top: auto; touch-action: auto; transition-delay: 0s; transition-duration: 0s; transition-property: all; transition-timing-function: ease; unicode-bidi: normal; vertical-align: baseline; visibility: visible; white-space: normal; widows: 2; width: 343.328px; will-change: auto; word-break: normal; word-spacing: 0px; word-wrap: normal; z-index: auto; zoom: 1; -webkit-appearance: none; backface-visibility: visible; -webkit-background-clip: border-box; -webkit-background-origin: padding-box; -webkit-border-horizontal-spacing: 0px; -webkit-border-image: none; -webkit-border-vertical-spacing: 0px; -webkit-box-align: stretch; -webkit-box-decoration-break: slice; -webkit-box-direction: normal; -webkit-box-flex: 0; -webkit-box-flex-group: 1; -webkit-box-lines: single; -webkit-box-ordinal-group: 1; -webkit-box-orient: horizontal; -webkit-box-pack: start; -webkit-box-reflect: none; column-count: auto; column-gap: normal; column-rule-color: rgb(61, 66, 70); column-rule-style: none; column-rule-width: 0px; column-span: none; column-width: auto; align-content: normal; align-items: normal; align-self: normal; flex-basis: auto; flex-grow: 0; flex-shrink: 1; flex-direction: row; flex-wrap: nowrap; justify-content: normal; -webkit-font-smoothing: antialiased; grid-auto-columns: auto; grid-auto-flow: row; grid-auto-rows: auto; grid-column-end: auto; grid-column-start: auto; grid-template-areas: none; grid-template-columns: none; grid-template-rows: none; grid-row-end: auto; grid-row-start: auto; grid-column-gap: 0px; grid-row-gap: 0px; -webkit-highlight: none; hyphens: manual; -webkit-hyphenate-character: auto; -webkit-line-break: auto; -webkit-line-clamp: none; -webkit-locale: &quot;en&quot;; -webkit-margin-before-collapse: collapse; -webkit-margin-after-collapse: collapse; -webkit-mask-box-image: none; -webkit-mask-box-image-outset: 0px; -webkit-mask-box-image-repeat: stretch; -webkit-mask-box-image-slice: 0 fill; -webkit-mask-box-image-source: none; -webkit-mask-box-image-width: auto; -webkit-mask-clip: border-box; -webkit-mask-composite: source-over; -webkit-mask-image: none; -webkit-mask-origin: border-box; -webkit-mask-position: 0% 0%; -webkit-mask-repeat: repeat; -webkit-mask-size: auto; order: 0; perspective: none; perspective-origin: 171.656px 171.656px; -webkit-print-color-adjust: economy; -webkit-rtl-ordering: logical; shape-outside: none; shape-image-threshold: 0; shape-margin: 0px; -webkit-tap-highlight-color: rgba(0, 0, 0, 0.18); -webkit-text-combine: none; -webkit-text-decorations-in-effect: none; -webkit-text-emphasis-color: rgb(61, 66, 70); -webkit-text-emphasis-position: over; -webkit-text-emphasis-style: none; -webkit-text-fill-color: rgb(61, 66, 70); -webkit-text-orientation: vertical-right; -webkit-text-security: none; -webkit-text-stroke-color: rgb(61, 66, 70); -webkit-text-stroke-width: 0px; transform: none; transform-origin: 171.656px 171.656px; transform-style: flat; -webkit-user-drag: auto; -webkit-user-modify: read-only; user-select: text; -webkit-writing-mode: horizontal-tb; -webkit-app-region: no-drag; buffered-rendering: auto; clip-path: none; clip-rule: nonzero; mask: none; filter: none; flood-color: rgb(0, 0, 0); flood-opacity: 1; lighting-color: rgb(255, 255, 255); stop-color: rgb(0, 0, 0); stop-opacity: 1; color-interpolation: sRGB; color-interpolation-filters: linearRGB; color-rendering: auto; fill: rgba(120, 129, 136, 0.35); fill-opacity: 1; fill-rule: nonzero; marker-end: none; marker-mid: none; marker-start: none; mask-type: luminance; shape-rendering: auto; stroke: none; stroke-dasharray: none; stroke-dashoffset: 0px; stroke-linecap: butt; stroke-linejoin: miter; stroke-miterlimit: 4; stroke-opacity: 1; stroke-width: 1px; alignment-baseline: auto; baseline-shift: 0px; dominant-baseline: auto; text-anchor: start; writing-mode: horizontal-tb; vector-effect: none; paint-order: fill stroke markers; d: none; cx: 0px; cy: 0px; x: 0px; y: 0px; r: 0px; rx: auto; ry: auto; caret-color: rgb(61, 66, 70);" version="1.1" xmlns:xlink="http://www.w3.org/1999/xlink"><style type="text/css"></style><svg xmlns="http://www.w3.org/2000/svg" class="placeholder-svg" viewBox="0 0 525.5 525.5"><path d="M375.5 345.2c0-.1 0-.1 0 0 0-.1 0-.1 0 0-1.1-2.9-2.3-5.5-3.4-7.8-1.4-4.7-2.4-13.8-.5-19.8 3.4-10.6 3.6-40.6 1.2-54.5-2.3-14-12.3-29.8-18.5-36.9-5.3-6.2-12.8-14.9-15.4-17.9 8.6-5.6 13.3-13.3 14-23 0-.3 0-.6.1-.8.4-4.1-.6-9.9-3.9-13.5-2.1-2.3-4.8-3.5-8-3.5h-54.9c-.8-7.1-3-13-5.2-17.5-6.8-13.9-12.5-16.5-21.2-16.5h-.7c-8.7 0-14.4 2.5-21.2 16.5-2.2 4.5-4.4 10.4-5.2 17.5h-48.5c-3.2 0-5.9 1.2-8 3.5-3.2 3.6-4.3 9.3-3.9 13.5 0 .2 0 .5.1.8.7 9.8 5.4 17.4 14 23-2.6 3.1-10.1 11.7-15.4 17.9-6.1 7.2-16.1 22.9-18.5 36.9-2.2 13.3-1.2 47.4 1 54.9 1.1 3.8 1.4 14.5-.2 19.4-1.2 2.4-2.3 5-3.4 7.9-4.4 11.6-6.2 26.3-5 32.6 1.8 9.9 16.5 14.4 29.4 14.4h176.8c12.9 0 27.6-4.5 29.4-14.4 1.2-6.5-.5-21.1-5-32.7zm-97.7-178c.3-3.2.8-10.6-.2-18 2.4 4.3 5 10.5 5.9 18h-5.7zm-36.3-17.9c-1 7.4-.5 14.8-.2 18h-5.7c.9-7.5 3.5-13.7 5.9-18zm4.5-6.9c0-.1.1-.2.1-.4 4.4-5.3 8.4-5.8 13.1-5.8h.7c4.7 0 8.7.6 13.1 5.8 0 .1 0 .2.1.4 3.2 8.9 2.2 21.2 1.8 25h-30.7c-.4-3.8-1.3-16.1 1.8-25zm-70.7 42.5c0-.3 0-.6-.1-.9-.3-3.4.5-8.4 3.1-11.3 1-1.1 2.1-1.7 3.4-2.1l-.6.6c-2.8 3.1-3.7 8.1-3.3 11.6 0 .2 0 .5.1.8.3 3.5.9 11.7 10.6 18.8.3.2.8.2 1-.2.2-.3.2-.8-.2-1-9.2-6.7-9.8-14.4-10-17.7 0-.3 0-.6-.1-.8-.3-3.2.5-7.7 3-10.5.8-.8 1.7-1.5 2.6-1.9h155.7c1 .4 1.9 1.1 2.6 1.9 2.5 2.8 3.3 7.3 3 10.5 0 .2 0 .5-.1.8-.3 3.6-1 13.1-13.8 20.1-.3.2-.5.6-.3 1 .1.2.4.4.6.4.1 0 .2 0 .3-.1 13.5-7.5 14.3-17.5 14.6-21.3 0-.3 0-.5.1-.8.4-3.5-.5-8.5-3.3-11.6l-.6-.6c1.3.4 2.5 1.1 3.4 2.1 2.6 2.9 3.5 7.9 3.1 11.3 0 .3 0 .6-.1.9-1.5 20.9-23.6 31.4-65.5 31.4h-43.8c-41.8 0-63.9-10.5-65.4-31.4zm91 89.1h-7c0-1.5 0-3-.1-4.2-.2-12.5-2.2-31.1-2.7-35.1h3.6c.8 0 1.4-.6 1.4-1.4v-14.1h2.4v14.1c0 .8.6 1.4 1.4 1.4h3.7c-.4 3.9-2.4 22.6-2.7 35.1v4.2zm65.3 11.9h-16.8c-.4 0-.7.3-.7.7 0 .4.3.7.7.7h16.8v2.8h-62.2c0-.9-.1-1.9-.1-2.8h33.9c.4 0 .7-.3.7-.7 0-.4-.3-.7-.7-.7h-33.9c-.1-3.2-.1-6.3-.1-9h62.5v9zm-12.5 24.4h-6.3l.2-1.6h5.9l.2 1.6zm-5.8-4.5l1.6-12.3h2l1.6 12.3h-5.2zm-57-19.9h-62.4v-9h62.5c0 2.7 0 5.8-.1 9zm-62.4 1.4h62.4c0 .9-.1 1.8-.1 2.8H194v-2.8zm65.2 0h7.3c0 .9.1 1.8.1 2.8H259c.1-.9.1-1.8.1-2.8zm7.2-1.4h-7.2c.1-3.2.1-6.3.1-9h7c0 2.7 0 5.8.1 9zm-7.7-66.7v6.8h-9v-6.8h9zm-8.9 8.3h9v.7h-9v-.7zm0 2.1h9v2.3h-9v-2.3zm26-1.4h-9v-.7h9v.7zm-9 3.7v-2.3h9v2.3h-9zm9-5.9h-9v-6.8h9v6.8zm-119.3 91.1c-2.1-7.1-3-40.9-.9-53.6 2.2-13.5 11.9-28.6 17.8-35.6 5.6-6.5 13.5-15.7 15.7-18.3 11.4 6.4 28.7 9.6 51.8 9.6h6v14.1c0 .8.6 1.4 1.4 1.4h5.4c.3 3.1 2.4 22.4 2.7 35.1 0 1.2.1 2.6.1 4.2h-63.9c-.8 0-1.4.6-1.4 1.4v16.1c0 .8.6 1.4 1.4 1.4H256c-.8 11.8-2.8 24.7-8 33.3-2.6 4.4-4.9 8.5-6.9 12.2-.4.7-.1 1.6.6 1.9.2.1.4.2.6.2.5 0 1-.3 1.3-.8 1.9-3.7 4.2-7.7 6.8-12.1 5.4-9.1 7.6-22.5 8.4-34.7h7.8c.7 11.2 2.6 23.5 7.1 32.4.2.5.8.8 1.3.8.2 0 .4 0 .6-.2.7-.4 1-1.2.6-1.9-4.3-8.5-6.1-20.3-6.8-31.1H312l-2.4 18.6c-.1.4.1.8.3 1.1.3.3.7.5 1.1.5h9.6c.4 0 .8-.2 1.1-.5.3-.3.4-.7.3-1.1l-2.4-18.6H333c.8 0 1.4-.6 1.4-1.4v-16.1c0-.8-.6-1.4-1.4-1.4h-63.9c0-1.5 0-2.9.1-4.2.2-12.7 2.3-32 2.7-35.1h5.2c.8 0 1.4-.6 1.4-1.4v-14.1h6.2c23.1 0 40.4-3.2 51.8-9.6 2.3 2.6 10.1 11.8 15.7 18.3 5.9 6.9 15.6 22.1 17.8 35.6 2.2 13.4 2 43.2-1.1 53.1-1.2 3.9-1.4 8.7-1 13-1.7-2.8-2.9-4.4-3-4.6-.2-.3-.6-.5-.9-.6h-.5c-.2 0-.4.1-.5.2-.6.5-.8 1.4-.3 2 0 0 .2.3.5.8 1.4 2.1 5.6 8.4 8.9 16.7h-42.9v-43.8c0-.8-.6-1.4-1.4-1.4s-1.4.6-1.4 1.4v44.9c0 .1-.1.2-.1.3 0 .1 0 .2.1.3v9c-1.1 2-3.9 3.7-10.5 3.7h-7.5c-.4 0-.7.3-.7.7 0 .4.3.7.7.7h7.5c5 0 8.5-.9 10.5-2.8-.1 3.1-1.5 6.5-10.5 6.5H210.4c-9 0-10.5-3.4-10.5-6.5 2 1.9 5.5 2.8 10.5 2.8h67.4c.4 0 .7-.3.7-.7 0-.4-.3-.7-.7-.7h-67.4c-6.7 0-9.4-1.7-10.5-3.7v-54.5c0-.8-.6-1.4-1.4-1.4s-1.4.6-1.4 1.4v43.8h-43.6c4.2-10.2 9.4-17.4 9.5-17.5.5-.6.3-1.5-.3-2s-1.5-.3-2 .3c-.1.2-1.4 2-3.2 5 .1-4.9-.4-10.2-1.1-12.8zm221.4 60.2c-1.5 8.3-14.9 12-26.6 12H174.4c-11.8 0-25.1-3.8-26.6-12-1-5.7.6-19.3 4.6-30.2H197v9.8c0 6.4 4.5 9.7 13.4 9.7h105.4c8.9 0 13.4-3.3 13.4-9.7v-9.8h44c4 10.9 5.6 24.5 4.6 30.2z"/><path d="M286.1 359.3c0 .4.3.7.7.7h14.7c.4 0 .7-.3.7-.7 0-.4-.3-.7-.7-.7h-14.7c-.3 0-.7.3-.7.7zm5.3-145.6c13.5-.5 24.7-2.3 33.5-5.3.4-.1.6-.5.4-.9-.1-.4-.5-.6-.9-.4-8.6 3-19.7 4.7-33 5.2-.4 0-.7.3-.7.7 0 .4.3.7.7.7zm-11.3.1c.4 0 .7-.3.7-.7 0-.4-.3-.7-.7-.7H242c-19.9 0-35.3-2.5-45.9-7.4-.4-.2-.8 0-.9.3-.2.4 0 .8.3.9 10.8 5 26.4 7.5 46.5 7.5h38.1zm-7.2 116.9c.4.1.9.1 1.4.1 1.7 0 3.4-.7 4.7-1.9 1.4-1.4 1.9-3.2 1.5-5-.2-.8-.9-1.2-1.7-1.1-.8.2-1.2.9-1.1 1.7.3 1.2-.4 2-.7 2.4-.9.9-2.2 1.3-3.4 1-.8-.2-1.5.3-1.7 1.1s.2 1.5 1 1.7z"/><path d="M275.5 331.6c-.8 0-1.4.6-1.5 1.4 0 .8.6 1.4 1.4 1.5h.3c3.6 0 7-2.8 7.7-6.3.2-.8-.4-1.5-1.1-1.7-.8-.2-1.5.4-1.7 1.1-.4 2.3-2.8 4.2-5.1 4zm5.4 1.6c-.6.5-.6 1.4-.1 2 1.1 1.3 2.5 2.2 4.2 2.8.2.1.3.1.5.1.6 0 1.1-.3 1.3-.9.3-.7-.1-1.6-.8-1.8-1.2-.5-2.2-1.2-3-2.1-.6-.6-1.5-.6-2.1-.1zm-38.2 12.7c.5 0 .9 0 1.4-.1.8-.2 1.3-.9 1.1-1.7-.2-.8-.9-1.3-1.7-1.1-1.2.3-2.5-.1-3.4-1-.4-.4-1-1.2-.8-2.4.2-.8-.3-1.5-1.1-1.7-.8-.2-1.5.3-1.7 1.1-.4 1.8.1 3.7 1.5 5 1.2 1.2 2.9 1.9 4.7 1.9z"/><path d="M241.2 349.6h.3c.8 0 1.4-.7 1.4-1.5s-.7-1.4-1.5-1.4c-2.3.1-4.6-1.7-5.1-4-.2-.8-.9-1.3-1.7-1.1-.8.2-1.3.9-1.1 1.7.7 3.5 4.1 6.3 7.7 6.3zm-9.7 3.6c.2 0 .3 0 .5-.1 1.6-.6 3-1.6 4.2-2.8.5-.6.5-1.5-.1-2s-1.5-.5-2 .1c-.8.9-1.8 1.6-3 2.1-.7.3-1.1 1.1-.8 1.8 0 .6.6.9 1.2.9z"/></svg></svg>